<svg width="50" height="50" viewBox="0 0 50 50" fill="none" xmlns="http://www.w3.org/2000/svg">
<path d="M25 50C38.8071 50 50 38.8071 50 25C50 11.1929 38.8071 0 25 0C11.1929 0 0 11.1929 0 25C0 38.8071 11.1929 50 25 50Z" fill="#16A34A"/>
<path d="M30.9189 27.32C30.6599 27.571 30.5409 27.934 30.5999 28.29L31.4889 33.21C31.5639 33.627 31.3879 34.049 31.0389 34.29C30.6969 34.54 30.2419 34.57 29.8689 34.37L25.4399 32.06C25.2859 31.978 25.1149 31.934 24.9399 31.929H24.6689C24.5749 31.943 24.4829 31.973 24.3989 32.019L19.9689 34.34C19.7499 34.45 19.5019 34.489 19.2589 34.45C18.6669 34.338 18.2719 33.774 18.3689 33.179L19.2589 28.259C19.3179 27.9 19.1989 27.535 18.9399 27.28L15.3289 23.78C15.0269 23.487 14.9219 23.047 15.0599 22.65C15.1939 22.254 15.5359 21.965 15.9489 21.9L20.9189 21.179C21.2969 21.14 21.6289 20.91 21.7989 20.57L23.9889 16.08C24.0409 15.98 24.1079 15.888 24.1889 15.81L24.2789 15.74C24.3259 15.688 24.3799 15.645 24.4399 15.61L24.5489 15.57L24.7189 15.5H25.1399C25.5159 15.539 25.8469 15.764 26.0199 16.1L28.2389 20.57C28.3989 20.897 28.7099 21.124 29.0689 21.179L34.0389 21.9C34.4589 21.96 34.8099 22.25 34.9489 22.65C35.0799 23.051 34.9669 23.491 34.6589 23.78L30.9189 27.32Z" fill="white"/>
</svg>
